<svg id="Layer_1" data-name="Layer 1" xmlns="http://www.w3.org/2000/svg" viewBox="0 0 1400 563.29"><defs><style>.cls-1{fill:#fff;}.cls-2{fill:#08be19;}</style></defs><title>Artboard 1</title><path class="cls-1" d="M574.53,273.92v-1.3l14.36-90.89h-28.7l-14.36,90.89c-3,18.26,9.57,33.27,28,33.05h12.4l4.35-28.27H578.89C575.62,277.4,574.53,276.1,574.53,273.92Z"/><polygon class="cls-2" points="568.96 129.54 564.1 160.2 592.36 160.2 597.23 129.54 568.96 129.54"/><path class="cls-1" d="M267.72,305.67H226.19c-4.57,0-8.26-3.69-9.79-7.39V129.55H244v145.9c0,1.95.22,3.26.87,3.26h12.83c.87,0,1.3-1.31,1.95-3.26l44.8-145.9h28.27L278.16,298.28C277.07,301.54,272.29,305.67,267.72,305.67Z"/><path class="cls-1" d="M396,265.66H348L336.22,303.5H308l53.49-166.56c1.31-3.48,5.87-7.39,10.44-7.39h42.83c4.57,0,8.27,3.69,9.35,7.39V303.5H396Zm.87-105.46c0-1.74-.43-2.39-1.3-2.39H382.31c-.87,0-1.52.65-1.95,2.39l-23.7,77.19h40.22Z"/><path class="cls-1" d="M529.74,275.23l-4.56,28.27H443.42l27.39-173.95h28.06L476,275.23Z"/><path class="cls-1" d="M725.44,154.55a44.08,44.08,0,0,1-.43,5L707.18,272.18c-2.62,17.4-18.71,31.32-36.1,31.32H607.15l27.4-173.95h63.93C714.13,129.55,725.44,139.76,725.44,154.55ZM640,275.23h35.66c2,0,2.82-.87,3.25-3.05l17.84-112.63v-.43c0-.87-.87-1.31-2.61-1.31H658.47Z"/><path class="cls-1" d="M806.11,265.66H758.06L746.32,303.5H718.05l53.49-166.56c1.3-3.48,5.87-7.39,10.44-7.39h42.83c4.57,0,8.27,3.69,9.35,7.39V303.5h-28ZM807,160.2c0-1.74-.43-2.39-1.3-2.39H792.41c-.87,0-1.52.65-1.95,2.39l-23.71,77.19H807Z"/><path class="cls-1" d="M918.1,157.81,895.05,303.5H866.78l23.05-145.69H854.17l4.35-28.26h99.59l-4.35,28.26Z"/><path class="cls-1" d="M1061,154.55a42,42,0,0,1-.44,5l-18,114.81c-2.83,17.39-18.92,31.31-36.32,31.31H973.55c-15.66,0-26.75-11.31-26.75-26.31a42,42,0,0,1,.44-5l18-114.81c2.82-17.39,18.91-31.31,36.31-31.31h32.61C1049.87,128.24,1061,139.55,1061,154.55Zm-67.41,5-18,114.81v.43a2.46,2.46,0,0,0,2.39,2.61h32.61a3.58,3.58,0,0,0,3.7-3l18-114.81v-.65a2.18,2.18,0,0,0-2.4-2.39H997.25A3.74,3.74,0,0,0,993.55,159.55Z"/><path class="cls-1" d="M1183.6,151.5a29.38,29.38,0,0,1-.44,4.14l-5,31.31c-1.74,11.09-9.78,21.09-20,25.65,8.48,3.7,13.7,12.18,13.7,22.18a23.43,23.43,0,0,1-.22,3.92l-10.22,64.8h-28.27l10.22-64.8c.22-2,.44-3.7.44-5,0-3.7-1.09-5.44-3.48-7H1106L1093.8,303.5h-28.27l27.4-173.95h68.27C1174,129.55,1183.6,139.11,1183.6,151.5Zm-33.92,35.88L1154,160a2.47,2.47,0,0,0-2.4-2.61h-34.79l-6.3,41.09h33C1147.94,196.73,1148.59,193.91,1149.68,187.38Z"/><path class="cls-1" d="M790,424.18h1V347h9.79v87h-17.4l-20.55-77.2H762V434h-9.78V347h17.5Z"/><path class="cls-1" d="M856.56,356.77h-29v24.36h26.09v9.78H827.54v33.27h29V434H817.75V347h38.81Z"/><path class="cls-1" d="M861.68,347H909.4v9.78h-19V434h-9.79v-77.2H861.68Z"/><path class="cls-1" d="M927.24,419.4a5.6,5.6,0,0,0,5.87,5.87h7.72C947,425.27,951,418.53,951,414V347h9.79v67c0,4.57,4,11.31,10.22,11.31h7.61a5.6,5.6,0,0,0,5.87-5.87V347h9.78V419.4a15.58,15.58,0,0,1-15.65,15.65h-7.61a15.55,15.55,0,0,1-15.11-11.41,15.56,15.56,0,0,1-15.11,11.41h-7.72a15.59,15.59,0,0,1-15.66-15.65V347h9.79Z"/><path class="cls-1" d="M1024.22,346.34h14A15.59,15.59,0,0,1,1053.9,362V419.4a15.59,15.59,0,0,1-15.66,15.65h-14a15.59,15.59,0,0,1-15.66-15.65V362A15.59,15.59,0,0,1,1024.22,346.34Zm0,78.93h14a5.6,5.6,0,0,0,5.87-5.87V362a5.59,5.59,0,0,0-5.87-5.87h-14a5.6,5.6,0,0,0-5.88,5.87V419.4A5.6,5.6,0,0,0,1024.22,425.27Z"/><path class="cls-1" d="M1113.69,360v15.65a14.15,14.15,0,0,1-8.37,12.83,13.93,13.93,0,0,1,9.14,13.05V434h-9.79v-32.4c0-4.46-1.74-6.85-4.68-8.16H1078.9V434h-9.78V347h31.53A13.08,13.08,0,0,1,1113.69,360Zm-9.89,15.87V360a3.44,3.44,0,0,0-3.59-3.38H1078.9v27h21.2C1103,382.32,1103.8,379.93,1103.8,375.91Z"/><path class="cls-1" d="M1138.81,381.13h13.48L1170.66,347h10.22l-20.44,38.49v1L1180.88,434h-10.22l-18.37-43.17h-13.48V434h-9.68V347h9.68Z"/></svg>